<svg width="290" height="64" viewBox="0 0 290 64" fill="none" xmlns="http://www.w3.org/2000/svg">
<path d="M104 23.4852C92 52.9519 90.4 56.2852 85.7333 59.7519L82 62.4185L93.0667 62.5519C99.4667 62.5519 104 62.0185 104 61.2185C104 60.4185 102.533 59.8852 100.667 59.8852C96.4 59.8852 95.0667 54.8185 97.6 48.1519L99.4667 43.2185H108.667H118L120.667 50.8185C123.2 58.4185 123.2 58.5519 120.667 60.4185C118.267 62.2852 119.333 62.4185 132.667 62.4185C147.067 62.5519 147.333 62.4185 144.133 60.0185C142 58.4185 137.2 48.4185 129.467 29.0852C122.133 11.3519 117.067 0.418543 115.733 0.151877C114.267 -0.11479 111.2 6.15188 104 23.4852ZM113.067 30.4185C114.667 34.2852 116 38.1519 116 38.6852C116 39.3519 112.667 39.8852 108.533 39.8852C104.4 39.8852 101.333 39.4852 101.6 38.8185C101.867 38.2852 103.467 34.1519 105.333 29.6185C107.067 25.0852 108.933 21.7519 109.467 22.2852C109.867 22.8185 111.467 26.4185 113.067 30.4185Z" fill="black"/>
<path d="M257.867 1.35195C250.133 3.21862 245.067 8.81862 244.4 16.8186C243.6 24.6853 247.067 30.4186 256.667 37.2186C271.2 47.6186 275.067 53.8853 269.867 59.0853C265.067 64.0186 256 58.8186 250.667 48.0186C248.667 44.0186 246.667 41.352 246.267 42.0186C245.867 42.6853 245.2 46.6853 244.667 50.952L243.733 58.552L248.8 60.6853C251.733 61.8853 257.467 63.2186 261.6 63.6186C276.667 64.952 287.467 58.8186 288.933 48.2853C290 40.6853 286.8 35.6186 275.6 27.352C263.333 18.2853 260.933 15.4853 260.933 10.4186C260.933 -0.381379 274.4 2.68529 279.2 14.552C280.4 17.4853 281.867 19.8853 282.533 19.8853C284.133 19.8853 285.867 5.21862 284.4 3.75195C283.067 2.41862 270.267 -0.248046 266.133 0.0186205C264.667 0.151954 260.933 0.685287 257.867 1.35195Z" fill="black"/>
<path d="M0 2.41871C0 3.08537 0.933333 3.88537 2 4.28537C4.66667 5.35204 7.46667 11.4854 18.1333 39.4854C23.2 52.952 28 63.8854 28.8 63.8854C29.6 63.8854 33.4667 54.8187 37.4667 43.8854C41.3333 32.8187 44.8 23.8854 45.2 23.8854C45.6 23.8854 49.3333 32.6854 53.4667 43.6187C57.7333 54.8187 61.7333 63.2187 62.6667 63.2187C63.7333 63.2187 68.2667 52.2854 74.1333 36.152C79.4667 21.2187 84.5333 8.15204 85.3333 7.21871C86.2667 6.15204 88 4.95204 89.4667 4.55204C95.0667 2.68537 91.4667 1.21871 81.3333 1.21871C75.4667 1.21871 70.6667 1.61871 70.6667 2.15204C70.6667 2.81871 72.5333 4.28537 74.6667 5.48537C76.9333 6.68537 78.6667 8.81871 78.6667 10.152C78.5333 11.4854 76.6667 18.552 74.2667 25.8854L69.8667 39.0854L64.1333 22.6854C58.8 7.61871 58.4 6.01871 60.5333 4.55204C61.7333 3.61871 62.6667 2.55204 62.6667 2.01871C62.6667 1.61871 56.4 1.21871 48.6667 1.21871C34.6667 1.21871 32.5333 1.88537 37.0667 4.68537C38.4 5.61871 40.2667 8.68537 41.2 11.6187C42.8 16.2854 42.6667 18.0187 40 27.0854C38.2667 32.6854 36.5333 37.6187 36 37.8854C35.4667 38.152 32.8 31.2187 30 22.2854C25.3333 7.48537 25.0667 6.01871 27.0667 4.55204C28.2667 3.61871 28.9333 2.55204 28.4 2.15204C27.0667 0.685373 0 1.08537 0 2.41871Z" fill="black"/>
<path d="M150.667 2.41854C150.667 3.08521 151.6 3.88521 152.667 4.41854C154.4 4.95188 154.667 9.35188 154.667 32.5519C154.667 56.0185 154.4 59.8852 152.667 59.8852C151.6 59.8852 150.667 60.4185 150.667 61.2185C150.667 62.0185 156.267 62.5519 164.8 62.5519C173.733 62.5519 178.533 62.0185 178 61.2185C177.6 60.4185 176.267 59.8852 175.2 59.8852C173.6 59.8852 173.333 55.4852 173.333 32.4185C173.333 6.15188 173.467 4.95188 176 4.28521C177.467 3.88521 178.267 3.08521 177.867 2.41854C176.933 0.818543 150.667 0.818543 150.667 2.41854Z" fill="black"/>
<path d="M184.933 2.95188C183.467 6.68521 182.4 19.8852 183.467 19.8852C184.133 19.8852 186 17.7519 187.733 15.2185C190.4 10.9519 197.733 5.21854 200.4 5.21854C200.933 5.21854 201.333 17.2185 201.333 32.0185C201.333 57.6185 201.2 58.8185 198.667 59.4852C192.133 61.2185 197.067 62.5519 210 62.5519C222.933 62.5519 227.867 61.2185 221.333 59.4852C218.8 58.8185 218.667 57.6185 218.667 32.0185C218.667 17.2185 219.067 5.21854 219.733 5.21854C222.267 5.21854 229.6 10.9519 232.267 15.2185C234 17.7519 235.867 19.8852 236.4 19.8852C237.6 19.8852 236.4 4.28521 235.067 2.15188C234.8 1.61854 223.467 1.21854 210 1.21854C190.8 1.21854 185.467 1.61854 184.933 2.95188Z" fill="black"/>
</svg>
