<svg xmlns="http://www.w3.org/2000/svg" viewBox="0 0 1920 1080" width="100%" height="100%">
  <g id="Camadas-Azuis">
    <path d="M 0,0 L 1920,0 L 1920,640 C 1800,480 1600,320 1200,240 C 800,160 400,280 0,220 Z" fill="#46cdfa" opacity="0.85" />
    
    <path d="M 0,0 L 1920,0 L 1920,580 C 1750,380 1450,220 1050,190 C 650,160 300,260 0,160 Z" fill="#52d6f4" />
  </g>

  <g id="Linhas-Guia-Gradiente" stroke="#46cdfa" stroke-width="1.5" fill="none" opacity="0.4">
    <path d="M 700,0 Q 1100,250 1920,400" />
    <path d="M 720,0 Q 1120,260 1920,415" />
    <path d="M 740,0 Q 1140,270 1920,430" />
    <path d="M 760,0 Q 1160,280 1920,445" />
    <path d="M 780,0 Q 1180,290 1920,460" />
    <path d="M 800,0 Q 1200,300 1920,475" />
    <path d="M 820,0 Q 1220,310 1920,490" />
    <path d="M 840,0 Q 1240,320 1920,505" />
    <path d="M 860,0 Q 1260,330 1920,520" />
    <path d="M 880,0 Q 1280,340 1920,535" />
    <path d="M 900,0 Q 1300,350 1920,550" />
    <path d="M 920,0 Q 1320,360 1920,565" />
    <path d="M 940,0 Q 1340,370 1920,580" />
    <path d="M 960,0 Q 1360,380 1920,595" />
    <path d="M 980,0 Q 1380,390 1920,610" />
    <path d="M 1000,0 Q 1400,400 1920,625" />
  </g>
</svg>
