<svg width="42" height="46" viewBox="0 0 42 46" fill="none" xmlns="http://www.w3.org/2000/svg">
<path d="M21.268 26.1978C21.793 26.1842 22.2957 26.3538 23.0038 27.0058C23.8099 27.7477 24.5512 28.8015 25.5632 30.2516C26.4632 31.5409 27.6448 33.2481 29.1378 34.5154C30.7689 35.9001 32.9448 36.913 35.697 36.554C37.7943 36.2803 39.6461 35.2495 41.1303 34.1361C36.9841 42.0876 30.0376 46 20.9792 46C11.685 46 4.61366 41.8813 0.509578 33.5065C0.833585 33.7626 1.16515 34.0101 1.50355 34.2453C3.16427 35.4002 5.25936 36.4563 7.59842 36.5774C10.24 36.7138 12.2804 35.653 13.8078 34.2919C15.219 33.0344 16.3272 31.3926 17.1724 30.1522C18.1198 28.7617 18.8104 27.7594 19.5682 27.0409C20.2355 26.4079 20.7346 26.2116 21.268 26.1978ZM20.9792 0C20.9792 0 38.1207 11.9135 42 23.7514C41.5394 24.3968 40.9978 25.1145 40.397 25.8351C39.4376 26.986 38.3891 28.0704 37.3399 28.8819C36.2551 29.7212 35.4123 30.0792 34.8469 30.153C34.3642 30.216 33.9747 30.1209 33.3745 29.6116C32.636 28.9847 31.9201 28.0114 30.9199 26.5786C30.032 25.3064 28.8709 23.5954 27.4361 22.2745C25.9034 20.8638 23.826 19.6728 21.0962 19.7441C18.4857 19.8122 16.5211 20.9956 15.0657 22.3756C13.7009 23.6699 12.6089 25.3139 11.7743 26.539C10.8374 27.9144 10.1636 28.8577 9.45326 29.4909C8.85889 30.0204 8.43759 30.1556 7.93769 30.1298C7.32893 30.0983 6.42427 29.7805 5.24411 28.9598C4.10024 28.1644 2.94463 27.0694 1.87995 25.8926C1.17179 25.11 0.535002 24.3246 0 23.6259C3.95412 11.8426 20.9414 0.0263708 20.9792 0Z" fill="#6BC6FF"/>
</svg>
